<svg width="40" height="42" viewBox="0 0 40 42" fill="none" xmlns="http://www.w3.org/2000/svg">
<path d="M10.4753 42C10.241 41.9999 10.0107 41.9399 9.80607 41.8257C9.60148 41.7116 9.42945 41.547 9.3063 41.3477C9.18316 41.1484 9.11299 40.9209 9.10245 40.6869C9.09191 40.4528 9.14135 40.22 9.24607 40.0104L11.9961 34.5104C12.0733 34.3432 12.1833 34.1933 12.3196 34.0694C12.4559 33.9456 12.6156 33.8504 12.7894 33.7894C12.9632 33.7285 13.1474 33.7031 13.3312 33.7147C13.515 33.7264 13.6945 33.7748 13.8592 33.8572C14.0239 33.9395 14.1704 34.0541 14.29 34.1941C14.4096 34.3342 14.4998 34.4968 14.5553 34.6724C14.6109 34.848 14.6305 35.0329 14.6132 35.2162C14.5959 35.3996 14.542 35.5775 14.4546 35.7396L11.7046 41.2396C11.5907 41.4682 11.4153 41.6604 11.1982 41.7948C10.981 41.9291 10.7307 42.0002 10.4753 42ZM32.2003 10.562C31.6144 7.78696 30.0925 5.29763 27.8895 3.51124C25.6866 1.72485 22.9365 0.749954 20.1003 0.749954C17.2641 0.749954 14.5141 1.72485 12.3111 3.51124C10.1082 5.29763 8.58622 7.78696 8.00032 10.562C5.95561 10.9778 4.12112 12.0967 2.81547 13.7243C1.50982 15.3519 0.815492 17.3854 0.853073 19.4716C0.890654 21.5578 1.65777 23.565 3.02119 25.1445C4.38461 26.724 6.25821 27.7761 8.31657 28.118L6.49607 31.7604C6.40867 31.9225 6.35471 32.1004 6.33741 32.2838C6.3201 32.4671 6.33979 32.652 6.39532 32.8276C6.45084 33.0032 6.54107 33.1658 6.66064 33.3059C6.78021 33.4459 6.9267 33.5605 7.0914 33.6428C7.2561 33.7252 7.43567 33.7736 7.61945 33.7853C7.80322 33.7969 7.98746 33.7715 8.16124 33.7106C8.33501 33.6497 8.49478 33.5544 8.63106 33.4306C8.76734 33.3068 8.87735 33.1568 8.95457 32.9896L11.7046 27.4896C11.8675 27.1637 11.8944 26.7865 11.7794 26.4408C11.6645 26.0951 11.417 25.8091 11.0913 25.6458C10.8993 25.5536 10.6882 25.5084 10.4753 25.5138V25.5H9.78782C8.18682 25.5052 6.64622 24.8892 5.49013 23.7817C4.33404 22.6741 3.65261 21.1613 3.5892 19.5616C3.52578 17.9618 4.08534 16.3998 5.15013 15.2042C6.21492 14.0087 7.70194 13.2727 9.29832 13.1511L10.4203 13.0631L10.5564 11.9466C10.8435 9.6174 11.9723 7.47352 13.7303 5.91883C15.4883 4.36415 17.7542 3.50598 20.101 3.50598C22.4479 3.50598 24.7137 4.36415 26.4717 5.91883C28.2297 7.47352 29.3586 9.6174 29.6456 11.9466L29.7817 13.0631L30.9023 13.1511C32.4987 13.2727 33.9857 14.0087 35.0505 15.2042C36.1153 16.3998 36.6749 17.9618 36.6114 19.5616C36.548 21.1613 35.8666 22.6741 34.7105 23.7817C33.5544 24.8892 32.0138 25.5052 30.4128 25.5H29.7253V28.25H30.4128C32.6282 28.2523 34.7654 27.4314 36.4096 25.9466C38.0538 24.4618 39.0876 22.419 39.3103 20.2148C39.5331 18.0107 38.9289 15.8024 37.615 14.0186C36.3012 12.2349 34.3714 11.003 32.2003 10.562Z" fill="white"/>
</svg>
