<svg width="38" height="40" viewBox="0 0 38 40" fill="none" xmlns="http://www.w3.org/2000/svg">
<path d="M2 16C1.46957 16 0.960859 15.7893 0.585786 15.4142C0.210714 15.0391 0 14.5304 0 14C0 13.4696 0.210714 12.9609 0.585786 12.5858C0.960859 12.2107 1.46957 12 2 12H18C19.0609 12 20.0783 11.5786 20.8284 10.8284C21.5786 10.0783 22 9.06087 22 8C22 6.93913 21.5786 5.92172 20.8284 5.17157C20.0783 4.42143 19.0609 4 18 4C16.9 4 15.9 4.44 15.18 5.18C14.998 5.37424 14.7781 5.52908 14.5338 5.63493C14.2896 5.74078 14.0262 5.79539 13.76 5.79539C13.4938 5.79539 13.2304 5.74078 12.9862 5.63493C12.7419 5.52908 12.522 5.37424 12.34 5.18C11.56 4.4 11.56 3.12 12.34 2.34C13.8 0.9 15.8 0 18 0C20.1217 0 22.1566 0.842855 23.6569 2.34315C25.1571 3.84344 26 5.87827 26 8C26 10.1217 25.1571 12.1566 23.6569 13.6569C22.1566 15.1571 20.1217 16 18 16H2ZM32 20C32.5304 20 33.0391 19.7893 33.4142 19.4142C33.7893 19.0391 34 18.5304 34 18C34 17.4696 33.7893 16.9609 33.4142 16.5858C33.0391 16.2107 32.5304 16 32 16C31.44 16 30.94 16.22 30.58 16.58C30.395 16.7654 30.1752 16.9125 29.9333 17.0129C29.6913 17.1132 29.4319 17.1649 29.17 17.1649C28.9081 17.1649 28.6487 17.1132 28.4067 17.0129C28.1648 16.9125 27.945 16.7654 27.76 16.58C27 15.8 27 14.54 27.76 13.76C28.84 12.68 30.34 12 32 12C33.5913 12 35.1174 12.6321 36.2426 13.7574C37.3679 14.8826 38 16.4087 38 18C38 19.5913 37.3679 21.1174 36.2426 22.2426C35.1174 23.3679 33.5913 24 32 24H4C3.46957 24 2.96086 23.7893 2.58579 23.4142C2.21071 23.0391 2 22.5304 2 22C2 21.4696 2.21071 20.9609 2.58579 20.5858C2.96086 20.2107 3.46957 20 4 20H32ZM30 32H2C1.46957 32 0.960859 31.7893 0.585786 31.4142C0.210714 31.0391 0 30.5304 0 30C0 29.4696 0.210714 28.9609 0.585786 28.5858C0.960859 28.2107 1.46957 28 2 28H30C31.5913 28 33.1174 28.6321 34.2426 29.7574C35.3679 30.8826 36 32.4087 36 34C36 35.5913 35.3679 37.1174 34.2426 38.2426C33.1174 39.3679 31.5913 40 30 40C28.34 40 26.84 39.32 25.76 38.24C25 37.46 25 36.2 25.76 35.42C25.945 35.2346 26.1648 35.0875 26.4067 34.9871C26.6487 34.8868 26.9081 34.8351 27.17 34.8351C27.4319 34.8351 27.6913 34.8868 27.9333 34.9871C28.1752 35.0875 28.395 35.2346 28.58 35.42C28.94 35.78 29.44 36 30 36C30.5304 36 31.0391 35.7893 31.4142 35.4142C31.7893 35.0391 32 34.5304 32 34C32 33.4696 31.7893 32.9609 31.4142 32.5858C31.0391 32.2107 30.5304 32 30 32Z" fill="white"/>
</svg>
